<?xml version="1.0" encoding="utf-8"?>
<!-- Generator: Adobe Illustrator 25.2.1, SVG Export Plug-In . SVG Version: 6.00 Build 0)  -->
<svg version="1.1" id="Layer_1" xmlns="http://www.w3.org/2000/svg" xmlns:xlink="http://www.w3.org/1999/xlink" x="0px" y="0px"
	 viewBox="0 0 489.41 197.81" style="enable-background:new 0 0 489.41 197.81;" xml:space="preserve">
<style type="text/css">
	.st0{fill:#FFFFFF;}
</style>
<g>
	<g>
		<g>
			<path class="st0" d="M0,63.04c0-21.68,17.6-44.21,45.78-44.21c14.98,0,25.35,7.23,29.75,18.54l-17.6,9.43
				c-2.93-5.97-7.54-9.43-14.77-9.43c-12.15,0-21.89,11.42-21.89,24.2c0,9.32,6.18,15.09,14.67,15.09c6.39,0,11-2.72,15.71-7.44
				l13.72,12.15C58.24,89.44,48.61,95.1,34.67,95.1C14.35,95.1,0,82.63,0,63.04z"/>
			<path class="st0" d="M70.5,62.1c0-22.31,18.23-43.16,43.68-43.16c20.85,0,34.99,14.25,34.99,32.89
				c0,22.31-18.23,43.16-43.68,43.16C84.64,94.99,70.5,80.74,70.5,62.1z M128.43,53.4c0-9.32-5.66-16.24-16.03-16.24
				c-12.78,0-21.16,12.47-21.16,23.36c0,9.32,5.66,16.24,16.03,16.24C120.15,76.76,128.43,64.3,128.43,53.4z"/>
			<path class="st0" d="M163.55,20.3h20.53l9.74,28.39l24.93-28.39h22.84L221.9,93.63h-20.43l11.21-42.11l-26.29,28.7h-0.42
				l-10.79-28.49l-11.21,41.9h-20.11L163.55,20.3z"/>
			<path class="st0" d="M248.26,20.3h20.53l9.74,28.39l24.93-28.39h22.84l-19.69,73.33h-20.43l11.21-42.11l-26.29,28.7h-0.42
				l-10.79-28.49l-11.21,41.9h-20.11L248.26,20.3z"/>
			<path class="st0" d="M321.8,62.1c0-22.31,18.23-43.16,43.68-43.16c20.85,0,34.99,14.25,34.99,32.89
				c0,22.31-18.23,43.16-43.68,43.16C335.94,94.99,321.8,80.74,321.8,62.1z M379.73,53.4c0-9.32-5.66-16.24-16.03-16.24
				c-12.78,0-21.16,12.47-21.16,23.36c0,9.32,5.66,16.24,16.03,16.24C371.45,76.76,379.73,64.3,379.73,53.4z"/>
		</g>
		<g>
			<g>
				<polygon class="st0" points="158.78,124.26 163.38,106.46 121.22,106.46 116.4,124.26 138.4,124.26 118.73,197.81 
					139.16,197.81 158.73,124.26 				"/>
				<polygon class="st0" points="168.05,106.46 163.45,124.26 180.73,124.26 185.44,106.46 				"/>
			</g>
			<g>
				<polygon class="st0" points="191.96,175.63 210.26,106.46 190.11,106.46 170.41,179.79 190.84,179.79 				"/>
				<path class="st0" d="M248.67,129.08c0-5.87-1.78-11.1-5.66-14.98c-4.92-4.92-12.99-7.65-25.25-7.65h-2.82l-4.66,17.6h6.54
					c4.3,0,7.33,0.84,9.01,2.51c1.26,1.36,1.89,2.93,1.89,4.92c0,6.29-5.97,10.16-15.09,10.16h-7l-4.21,15.92h4.41l9.74,22.21h22.42
					l-11.31-24.72C241.65,150.98,248.67,141.34,248.67,129.08z"/>
			</g>
			<g>
				<polygon class="st0" points="266.33,179.79 300.94,179.79 305.54,162.5 271.06,162.5 				"/>
				<polygon class="st0" points="286.36,106.46 281.53,123.74 315.39,123.74 320.11,106.46 				"/>
				<polygon class="st0" points="276.77,124.02 276.76,124.01 281.66,106.46 261.34,106.46 241.64,179.79 261.64,179.79 
					266.37,162.5 266.37,162.5 269.51,150.87 304.5,150.87 308.79,134.84 273.8,134.84 				"/>
			</g>
			<g>
				<polygon class="st0" points="369.34,105.93 352.05,105.93 301.04,179.79 321.85,179.79 				"/>
				<polygon class="st0" points="372.49,109.4 356.49,134.29 358.55,150.87 345.82,150.87 335.65,166.69 360.22,166.69 362,179.79 
					383.37,179.79 				"/>
			</g>
			<g>
				<polygon class="st0" points="423.48,106.46 404.22,106.46 384.52,179.79 403.96,179.79 				"/>
				<path class="st0" d="M456.6,115.88c-5.52-5.52-14.35-9.37-28.44-9.42l-4.8,18.01h2.33c7.12,0,11.63,1.68,14.35,4.5
					c2.3,2.3,3.67,5.55,3.67,10.06c0,5.76-2.41,11.42-6.29,15.3c-4.82,4.82-12.47,7.44-20.95,7.44h-3.04l-4.8,18.02h5.43
					c16.97,0,29.65-4.71,38.45-13.51c7.86-7.86,12.05-17.91,12.05-28.91C464.56,128.45,462.04,121.33,456.6,115.88z"/>
			</g>
		</g>
	</g>
	<g>
		<polygon class="st0" points="477.78,14.4 465.47,19.8 465.41,19.67 453.84,61.04 434.87,20.27 415.9,20.27 396.19,93.63 
			416.42,93.63 427.74,51.39 447.55,93.63 465.36,93.63 485.62,20.2 		"/>
		<polygon class="st0" points="478.36,9.21 486.91,15.53 489.41,6.45 480.69,0 469.54,4.89 466.93,14.22 		"/>
	</g>
</g>
</svg>
