<?xml version="1.0" encoding="UTF-8"?>
<svg width="200px" height="80.2631579px" viewBox="0 0 200 80.2631579" version="1.1" xmlns="http://www.w3.org/2000/svg" xmlns:xlink="http://www.w3.org/1999/xlink">
    <title>RPM Logo</title>
    <defs>
        <polygon id="path-1" points="0 0 25 0 25 80.2631579 0 80.2631579"></polygon>
        <polygon id="path-3" points="0 0 46.0526316 0 46.0526316 63.1578947 0 63.1578947"></polygon>
        <polygon id="path-5" points="0 84.2105263 200 84.2105263 200 3.94736842 0 3.94736842"></polygon>
    </defs>
    <g id="Designs-Round-2" stroke="none" stroke-width="1" fill="none" fill-rule="evenodd">
        <g id="Desktop-RPM-Info-Modal" transform="translate(-309, -147)">
            <g id="Modal-Copy" transform="translate(246, 107)">
                <g id="RPM-Logo" transform="translate(63, 40)">
                    <g id="Group-3" transform="translate(35.5263, 0)">
                        <mask id="mask-2" fill="white">
                            <use xlink:href="#path-1"></use>
                        </mask>
                        <g id="Clip-2"></g>
                        <path d="M21.790382,-0.000423451729 L25,0.737441185 L11.3523895,75.6322898 C10.7748953,78.801826 7.61052865,80.8470978 4.41922666,80.1145263 L4.41922666,80.1145263 C1.22792467,79.3808962 -0.684486214,76.1690149 0.228083936,73.0767586 L21.790382,-0.000423451729 Z" id="Fill-1" fill="#E62631" mask="url(#mask-2)"></path>
                    </g>
                    <g id="Group-6" transform="translate(0, 11.8421)">
                        <mask id="mask-4" fill="white">
                            <use xlink:href="#path-3"></use>
                        </mask>
                        <g id="Clip-5"></g>
                        <path d="M37.1776925,12.2234216 C38.8147037,11.7869004 40.4538408,11.4553121 42.090852,11.2171142 L46.0526316,0.000826988792 C42.0164424,-0.0233075988 37.9090326,0.480370751 33.8228827,1.56957518 C9.43885748,8.06807523 -4.99128952,32.84905 1.5918339,56.9185792 C2.1839217,59.0812481 2.92589169,61.1631186 3.80286194,63.1578947 L7.27353819,63.1578947 C1.37498307,40.9729621 14.709183,18.2119473 37.1776925,12.2234216" id="Fill-4" fill="#010202" mask="url(#mask-4)"></path>
                    </g>
                    <path d="M79.4515757,22.2211022 C81.5129799,22.2211022 81.8206998,21.6543557 82.1582334,19.5969317 L82.3435042,18.5233135 C82.7119163,16.4349198 82.4659534,15.6297062 80.5280631,15.6297062 L78.158939,15.6297062 L77.1750871,22.2211022 L79.4515757,22.2211022 Z M71.0526316,34.2105263 L74.2831585,11.8421053 L80.651577,11.8421053 C86.0340139,11.8421053 87.2957721,14.0791538 86.7112107,18.3137515 L86.4652477,20.0738659 C86.0042002,23.2647829 85.0810404,24.9650224 82.4659534,25.6215812 L84.804199,34.2105263 L80.405614,34.2105263 L78.1291253,25.9199231 L76.6522826,25.9199231 L75.4522813,34.2105263 L71.0526316,34.2105263 Z" id="Fill-7" fill="#010202"></path>
                    <polygon id="Fill-9" fill="#010202" points="90.1450054 11.8421053 94.7368421 11.8421053 91.4350306 34.2105263 86.8421053 34.2105263"></polygon>
                    <path d="M101.686543,30.333292 C104.033042,30.333292 104.434994,29.3495316 104.836946,26.5458659 L105.82472,19.8959343 C106.256605,17.0323965 106.19567,15.7203718 103.848102,15.7203718 L101.964488,15.7203718 L99.8018602,30.333292 L101.686543,30.333292 Z M97.9802496,11.8421053 L104.033042,11.8421053 C109.160064,11.8421053 111.136682,14.2886029 110.36485,19.537734 L109.253068,27.1425223 C108.481236,32.3617173 106.380611,34.2105263 101.470601,34.2105263 L94.7368421,34.2105263 L97.9802496,11.8421053 Z" id="Fill-11" fill="#010202"></path>
                    <polygon id="Fill-13" fill="#010202" points="113.80195 11.8421053 125 11.8421053 124.375967 15.7193395 117.825777 15.7193395 117.077585 20.6412386 122.379708 20.6412386 121.818294 24.6371848 116.516171 24.6371848 115.64274 30.333292 122.255549 30.333292 122.255549 34.2105263 110.526316 34.2105263"></polygon>
                    <path d="M133.398944,22.2211022 C135.460348,22.2211022 135.768068,21.6543557 136.105602,19.5969317 L136.290873,18.5233135 C136.659285,16.4349198 136.413322,15.6297062 134.475432,15.6297062 L132.106307,15.6297062 L131.122455,22.2211022 L133.398944,22.2211022 Z M125,34.2105263 L128.230527,11.8421053 L134.598945,11.8421053 C139.981382,11.8421053 141.243141,14.0791538 140.658579,18.3137515 L140.412616,20.0738659 C139.951569,23.2647829 139.028409,24.9650224 136.413322,25.6215812 L138.751567,34.2105263 L134.352982,34.2105263 L132.076494,25.9199231 L130.599651,25.9199231 L129.39965,34.2105263 L125,34.2105263 Z" id="Fill-15" fill="#010202"></path>
                    <path d="M145.032254,26.9368971 C144.88463,29.3617988 145.149335,30.3558578 147.149897,30.3558578 C148.914261,30.3558578 149.885526,29.70391 149.885526,27.9008332 C149.885526,24.3570771 142.678412,23.1758251 142.620381,17.3319627 C142.561331,13.1674576 144.384744,10.5263158 149.502721,10.5263158 C154.944454,10.5263158 155.473864,13.7892824 155.209159,17.7375474 L151.090954,17.7375474 C151.179528,15.4051663 151.150003,14.3487096 149.267541,14.3487096 C147.679308,14.3487096 146.855667,14.7833415 146.855667,16.7112136 C146.855667,20.2861685 154.091288,21.4975435 154.091288,27.3726048 C154.091288,31.6619052 152.121269,34.2105263 146.914717,34.2105263 C141.38441,34.2105263 140.590294,31.0088815 140.825474,26.9368971 L145.032254,26.9368971 Z" id="Fill-17" fill="#010202"></path>
                    <polygon id="Fill-19" fill="#010202" points="74.4940625 75 74.4940625 69.3065101 72.0979372 75 71.3085595 75 68.9135539 69.3065101 68.9135539 75 67.1052632 75 67.1052632 67.1052632 69.6391096 67.1052632 71.7038082 72.0414242 73.7673871 67.1052632 76.3157895 67.1052632 76.3157895 75"></polygon>
                    <polygon id="Fill-21" fill="#010202" points="77.6315789 75 77.6315789 67.1052632 82.8947368 67.1052632 82.8947368 68.584551 79.2154268 68.584551 79.2154268 70.241728 82.8173086 70.241728 82.8173086 71.7220562 79.2154268 71.7220562 79.2154268 73.5207121 82.8947368 73.5207121 82.8947368 75"></polygon>
                    <polygon id="Fill-23" fill="#010202" points="91.5993256 75 91.5993256 69.3065101 89.2032004 75 88.4138227 75 86.0188171 69.3065101 86.0188171 75 84.2105263 75 84.2105263 67.1052632 86.7443728 67.1052632 88.8090714 72.0414242 90.8726503 67.1052632 93.4210526 67.1052632 93.4210526 75"></polygon>
                    <path d="M100.915603,72.620864 C100.915603,72.1236069 100.560968,71.7210159 99.9099373,71.7210159 L97.7322079,71.7210159 L97.7322079,73.5207121 L99.9099373,73.5207121 C100.537048,73.5207121 100.915603,73.1888606 100.915603,72.620864 L100.915603,72.620864 Z M100.761685,69.4136597 C100.761685,68.9278457 100.40705,68.584551 99.8392183,68.584551 L97.7322079,68.584551 L97.7322079,70.241728 L99.8392183,70.241728 C100.40705,70.241728 100.761685,69.9223599 100.761685,69.4136597 L100.761685,69.4136597 Z M96.0526316,75 L96.0526316,67.1052632 L100.206333,67.1052632 C101.708072,67.1052632 102.477661,68.0633673 102.477661,69.1171779 C102.477661,70.0992087 101.86199,70.7743548 101.11632,70.9283173 C101.969108,71.0583532 102.631579,71.8749783 102.631579,72.8580494 C102.631579,74.0522987 101.85055,75 100.335291,75 L96.0526316,75 Z" id="Fill-25" fill="#010202"></path>
                    <polygon id="Fill-27" fill="#010202" points="103.947368 75 103.947368 67.1052632 109.210526 67.1052632 109.210526 68.584551 105.531216 68.584551 105.531216 70.241728 109.133098 70.241728 109.133098 71.7220562 105.531216 71.7220562 105.531216 73.5207121 109.210526 73.5207121 109.210526 75"></polygon>
                    <path d="M116.596477,69.6383616 C116.596477,68.9871421 116.073795,68.584551 115.39292,68.584551 L113.568344,68.584551 L113.568344,70.7150585 L115.39292,70.7150585 C116.073795,70.7150585 116.596477,70.3124675 116.596477,69.6383616 L116.596477,69.6383616 Z M116.426525,75 L114.833896,72.1943464 L113.568344,72.1943464 L113.568344,75 L111.842105,75 L111.842105,67.1052632 L115.635555,67.1052632 C117.326521,67.1052632 118.371884,68.18196 118.371884,69.6498048 C118.371884,71.0344266 117.460131,71.7917554 116.584719,71.993571 L118.421053,75 L116.426525,75 Z" id="Fill-29" fill="#010202"></path>
                    <path d="M119.736842,73.7854251 L120.667697,72.5134449 C121.229148,73.0754124 122.100184,73.555804 123.199998,73.555804 C124.143446,73.555804 124.584211,73.1559812 124.584211,72.7088243 C124.584211,71.3794388 119.999202,72.3069873 119.999202,69.4316877 C119.999202,68.1597075 121.145192,67.1052632 123.020544,67.1052632 C124.28617,67.1052632 125.336661,67.4718513 126.124791,68.1707857 L125.181343,69.3853606 C124.536987,68.8123149 123.676445,68.5494592 122.865227,68.5494592 C122.148458,68.5494592 121.742324,68.8465567 121.742324,69.3057989 C121.742324,70.5082885 126.315789,69.6945435 126.315789,72.5476867 C126.315789,73.9455556 125.265299,75 123.127587,75 C121.587007,75 120.489292,74.5075231 119.736842,73.7854251" id="Fill-31" fill="#010202"></path>
                    <polygon id="Fill-33" fill="#010202" points="132.642412 75 132.642412 71.674203 129.188127 71.674203 129.188127 75 127.631579 75 127.631579 67.1052632 129.188127 67.1052632 129.188127 70.2063582 132.642412 70.2063582 132.642412 67.1052632 134.210526 67.1052632 134.210526 75"></polygon>
                    <mask id="mask-6" fill="white">
                        <use xlink:href="#path-5"></use>
                    </mask>
                    <g id="Clip-36"></g>
                    <polygon id="Fill-35" fill="#010202" mask="url(#mask-6)" points="136.842105 75 138.157895 75 138.157895 67.1052632 136.842105 67.1052632"></polygon>
                    <path d="M145.588286,69.6498048 C145.588286,68.9871421 145.060719,68.584551 144.373479,68.584551 L142.531848,68.584551 L142.531848,70.7036153 L144.373479,70.7036153 C145.060719,70.7036153 145.588286,70.3010243 145.588286,69.6498048 L145.588286,69.6498048 Z M140.789474,75 L140.789474,67.1052632 L144.618382,67.1052632 C146.398517,67.1052632 147.368421,68.265183 147.368421,69.6498048 C147.368421,71.0229834 146.38665,72.1829032 144.618382,72.1829032 L142.531848,72.1829032 L142.531848,75 L140.789474,75 Z" id="Fill-37" fill="#010202" mask="url(#mask-6)"></path>
                    <path d="M78.4265555,46.1545842 L78.2460809,47.2281528 C77.9143417,49.2865141 77.6431083,49.8522022 75.7142216,49.8522022 L73.3930898,49.8522022 L74.3278017,43.2611103 L76.6781433,43.2611103 C78.5778202,43.2611103 78.7885477,44.0662868 78.4265555,46.1545842 M76.7689022,39.4736842 L70.5305343,39.4736842 L69.0617012,49.855299 L65.0067621,49.855299 L64.4736842,53.6117568 L68.5296665,53.6117568 L67.3654494,61.8421053 L71.6759738,61.8421053 L72.850623,53.6096922 L75.3824823,53.6096922 C80.5359166,53.6096922 81.8023679,51.9404995 82.4648033,47.705065 L82.7370799,45.9460641 C83.4005585,41.7106295 82.0736013,39.4736842 76.7689022,39.4736842" id="Fill-38" fill="#E62732" mask="url(#mask-6)"></path>
                    <path d="M94.1856095,46.1545842 L94.0003387,47.2281528 C93.662805,49.2865141 93.3550851,49.8522022 91.293681,49.8522022 L89.0171923,49.8522022 L90.0010443,43.2611103 L92.3701684,43.2611103 C94.3080586,43.2611103 94.5540216,44.0662868 94.1856095,46.1545842 M92.4936822,39.4736842 L86.1252638,39.4736842 L82.8947368,61.8421053 L87.2943866,61.8421053 L88.4933231,53.5508524 L89.9701658,53.5508524 L92.2477193,61.8421053 L96.6463042,61.8421053 L94.3080586,53.2525242 C96.9231457,52.5959957 97.8463055,50.896867 98.307353,47.705065 L98.553316,45.9460641 C99.1378774,41.7106295 97.8761192,39.4736842 92.4936822,39.4736842" id="Fill-39" fill="#E62732" mask="url(#mask-6)"></path>
                    <polygon id="Fill-40" fill="#E62732" mask="url(#mask-6)" points="111.218025 43.3509185 111.842105 39.4736842 100.64322 39.4736842 97.3684211 61.8421053 109.09745 61.8421053 109.09745 57.9638387 102.484148 57.9638387 103.357643 52.2687638 108.660162 52.2687638 109.221618 48.2728176 103.919099 48.2728176 104.667347 43.3509185"></polygon>
                    <polygon id="Fill-41" fill="#E62732" mask="url(#mask-6)" points="119.141031 43.3509185 125.69171 43.3509185 126.315789 39.4736842 115.116905 39.4736842 111.842105 61.8421053 116.396376 61.8421053 117.831328 52.2687638 122.915742 52.2687638 123.477198 48.2728176 118.392784 48.2728176"></polygon>
                    <polygon id="Fill-42" fill="#E62732" mask="url(#mask-6)" points="138.849604 43.3509185 139.473684 39.4736842 128.274799 39.4736842 125 61.8421053 136.729029 61.8421053 136.729029 57.9638387 130.115727 57.9638387 130.989222 52.2687638 136.291741 52.2687638 136.853197 48.2728176 131.550678 48.2728176 132.298926 43.3509185"></polygon>
                    <path d="M150.764557,46.1545842 L150.579286,47.2281528 C150.241752,49.2865141 149.934032,49.8522022 147.872628,49.8522022 L145.59614,49.8522022 L146.579992,43.2611103 L148.949116,43.2611103 C150.887006,43.2611103 151.132969,44.0662868 150.764557,46.1545842 M149.07263,39.4736842 L142.704211,39.4736842 L139.473684,61.8421053 L143.873334,61.8421053 L145.07227,53.5508524 L146.549113,53.5508524 L148.826667,61.8421053 L153.225252,61.8421053 L150.887006,53.2525242 C153.502093,52.5959957 154.425253,50.896867 154.8863,47.705065 L155.132263,45.9460641 C155.716825,41.7106295 154.455067,39.4736842 149.07263,39.4736842" id="Fill-43" fill="#E62732" mask="url(#mask-6)"></path>
                    <path d="M166.554031,46.1545842 L166.36876,47.2281528 C166.031226,49.2865141 165.723506,49.8522022 163.662102,49.8522022 L161.385613,49.8522022 L162.369465,43.2611103 L164.738589,43.2611103 C166.67648,43.2611103 166.922443,44.0662868 166.554031,46.1545842 M164.862103,39.4736842 L158.493685,39.4736842 L155.263158,61.8421053 L159.662808,61.8421053 L160.861744,53.5508524 L162.338587,53.5508524 L164.61614,61.8421053 L169.014725,61.8421053 L166.67648,53.2525242 C169.291567,52.5959957 170.214727,50.896867 170.675774,47.705065 L170.921737,45.9460641 C171.506298,41.7106295 170.24454,39.4736842 164.862103,39.4736842" id="Fill-44" fill="#E62732" mask="url(#mask-6)"></path>
                    <polygon id="Fill-45" fill="#E62732" mask="url(#mask-6)" points="169.736842 61.8421053 181.465871 61.8421053 181.465871 57.964871 174.852569 57.964871 175.726065 52.2687638 181.028583 52.2687638 181.590039 48.2728176 176.28752 48.2728176 177.035768 43.3509185 183.586447 43.3509185 184.210526 39.4736842 173.012721 39.4736842"></polygon>
                    <path d="M195.298405,47.5268526 L194.31063,54.1781235 C193.908678,56.9819185 193.506727,57.9646921 191.160227,57.9646921 L189.275544,57.9646921 L191.437103,43.3510974 L193.321786,43.3510974 C195.669355,43.3510974 195.730289,44.6631827 195.298405,47.5268526 M193.506727,39.4736842 L187.453934,39.4736842 L184.210526,61.8421053 L190.943216,61.8421053 C195.854295,61.8421053 197.95492,59.9932109 198.726753,54.7748074 L199.838534,47.1686358 C200.610366,41.9192625 198.633748,39.4736842 193.506727,39.4736842" id="Fill-46" fill="#E62732" mask="url(#mask-6)"></path>
                </g>
            </g>
        </g>
    </g>
</svg>