<?xml version="1.0" encoding="UTF-8"?><svg id="a" xmlns="http://www.w3.org/2000/svg" width="40" height="17.78" viewBox="0 0 40 17.78"><path d="M19.2,3.99h-3.11l-1.59,11.39h2.02l.6-4.29h.89l1.14,4.29h2.02l-1.17-4.42.09-.02c1.18-.31,1.69-1.04,1.94-2.79l.12-.91c.16-1.18.03-1.97-.41-2.47-.46-.52-1.29-.78-2.54-.78ZM20.13,7.37l-.09.55c-.17,1.06-.33,1.43-1.45,1.43h-1.25l.52-3.59h1.27c.45,0,.73.09.9.28.23.27.21.72.1,1.32Z" fill="#fff" stroke-width="0"/><path d="M30.4,7.24c.18-1.16.06-1.93-.38-2.44-.46-.54-1.31-.8-2.59-.8h-3.11l-.75,5.37h-1.11l-.25,1.76h1.11l-.6,4.26h2.02l.6-4.26h1.38c2.65,0,3.21-.88,3.54-2.98l.14-.91ZM28.37,7.37l-.09.55c-.17,1.06-.32,1.43-1.39,1.43h-1.29l.5-3.59h1.28c.45,0,.72.09.89.28.22.27.2.7.1,1.32Z" fill="#fff" stroke-width="0"/><polygon points="37.18 3.99 34.85 11.81 34.68 3.99 31.83 3.99 30.24 15.38 32.17 15.38 33.12 8.62 33.38 15.38 35.25 15.38 37.34 8.6 36.4 15.38 38.41 15.38 40 3.99 37.18 3.99" fill="#fff" stroke-width="0"/><path d="M8.2,5.27c.36-.1.72-.17,1.08-.22l.87-2.51c-.89,0-1.8.11-2.7.35C2.08,4.34-1.1,9.88.35,15.26c.13.48.29.95.49,1.39h.77C.3,11.7,3.25,6.61,8.2,5.27Z" fill="#fff" stroke-width="0"/><path d="M12.73,0l.7.16-2.97,16.59c-.13.7-.81,1.16-1.51.99h0c-.69-.16-1.11-.87-.91-1.56L12.73,0Z" fill="#ea1e2e" stroke-width="0"/></svg>