<?xml version="1.0" encoding="utf-8"?>
<svg xmlns="http://www.w3.org/2000/svg" id="Layer_1" style="enable-background:new 0 0 160 60;" version="1.1" viewBox="0 0 160 60" x="0px" y="0px">
<g>
	<path d="M42.98,25.49c0-1.28,0-1.71,0-2.4c0-1.33-1.36-3.08-4.79-3.08c-3.42,0-8.25-0.01-10.73-0.01c-2.48,0-8.21,2.9-8.22,6.66&#xA;		s2.86,5.35,4.96,5.35s8.08,0.01,9.37,0.01c2.26,0,1.92,3.33-0.09,3.33c-2.01,0-8.08-0.01-8.68-0.01s-0.83-0.38-1.03-0.66&#xA;		c-0.49,0-5.79-0.01-6.48-0.01c0,0.73,0,1.22,0,1.88c0,1.39,1.11,3.33,5.68,3.34c4.58,0.01,7.35,0.01,9.53,0.01&#xA;		c3.19,0.01,8.85-2.94,8.86-7.52c0-2.97-3.22-4.62-5.89-4.62s-7.63-0.01-8.7-0.01c-2.03,0-1.62-3.4,0.24-3.4s8,0.01,8.6,0.01&#xA;		s1.33,0.58,1.33,1.07C39.3,25.44,42.98,25.49,42.98,25.49"/>
	<path d="M47.43,20.02c-0.48,1.91-2.7,11.45-3.23,13.65c-0.74,3.08,1.34,6.25,5.85,6.25c4.5,0.01,8.17,0.01,9.4,0.01&#xA;		c3.39,0.01,6.73-1.17,8.1-5.25c-1.91,0-5.9-0.01-6.36-0.01c-0.17,0.43-0.57,0.77-1.11,0.77s-7.98-0.01-8.75-0.01&#xA;		s-1.2-0.48-0.68-3.39c1.51,0,12.57,0.01,13.59,0.01c0.4-1.71,0.77-3.56,0.97-4.33c-1.62,0-12.31-0.01-13.57-0.01&#xA;		c0.32-1.68,0.46-1.97,0.66-3.34c2.57,0,9.5,0.01,10,0.01s1.05,0.44,1.14,1.02c1.01,0,5.54,0.01,6.2,0.01c0-0.93,0-1.71,0-2.47&#xA;		c0-0.76-1.17-2.92-5.2-2.92C60.41,20.02,47.43,20.02,47.43,20.02"/>
	<path d="M100.51,20.06c0,0,5.75,0.01,6.33,0.01c-0.77,3.28-4.72,19.9-4.72,19.9l-6.19-0.01L100.51,20.06z"/>
	<path d="M136.38,20.09c0,0,5.75,0.01,6.33,0.01c-0.77,3.28-4.72,19.9-4.72,19.9l-6.19-0.01L136.38,20.09z"/>
	<path d="M133.31,20.09c-1.82,0-14.59-0.01-16.29-0.01c-3.45-0.01-7.94,2.56-8.76,6.2c-0.83,3.65-1.5,6.81-1.8,8.26&#xA;		c-0.63,2.97,2.48,5.43,6.3,5.43c3.83,0.01,7.56,0.01,9.4,0.01c2.29,0,7.07-1.51,7.93-5.65c-1.85,0-5.87-0.01-6.3-0.01&#xA;		c-0.14,0.43-0.83,1.17-1.63,1.17s-7.35-0.01-8.07-0.01c-0.71,0-1.48-0.52-1.34-1.51c0.14-0.99,1.57-7.61,1.72-8.18&#xA;		c0.14-0.57,0.74-1.37,1.74-1.37s9.89,0.01,9.89,0.01l-0.34,1.17l6.3,0.01L133.31,20.09z"/>
	<path d="M89.96,20.05c-4.62-0.01-16.02-0.01-16.02-0.01l-4.5,19.9c0,0,11.99,0.01,15.05,0.01c3.79,0.01,8.85-1.77,9.76-5.83&#xA;		c0.9-4.06,1.57-6.95,1.8-8.38C96.56,22.58,93.76,20.06,89.96,20.05 M89.73,26.47c-0.26,1.09-1.46,6.1-1.66,7.27&#xA;		c-0.2,1.17-1.23,1.68-2.4,1.68c-0.74,0-8.98-0.01-8.98-0.01l2.41-11.09c0,0,7.98,0.01,9.23,0.01S89.98,25.38,89.73,26.47"/>
</g>
</svg>