<?xml version="1.0" encoding="utf-8"?>
<svg xmlns="http://www.w3.org/2000/svg" id="Layer_1" style="enable-background:new 0 0 160 60;" version="1.1" viewBox="0 0 160 60" x="0px" y="0px">
<style type="text/css">
	.st0{fill-rule:evenodd;clip-rule:evenodd;fill:#EC1C24;}
	.st1{fill-rule:evenodd;clip-rule:evenodd;fill:#231F20;}
</style>
<title>Asset 17</title>
<g>
	<path class="st0" d="M27.4,32.6c0.5,0.5,0.9,1,1.4,1.5c0.5,0.6,1.1,0.6,1.8,0c1.6-1.3,3.2-2.6,4.7-4c-1.9-2.3-3.6-4.4-5-6.1&#xA;		c-1.2-1.7-1.1-3.3,0.3-4.9c0.9-1,2.1-1.5,3.8-1.6c5.2,0.1,10.5,0.1,15.8,0.2c-1.5,1.3-3,2.6-4.6,3.9c-0.7,0.7-1.7,1-2.7,0.9&#xA;		c-1.4,0-2.8,0-4.2-0.1c-0.6,0-0.9,0.1-1,0.4c-0.1,0.2,0.1,0.4,0.5,0.8c2.6,3.3,5.2,6.5,7.8,9.8c0.3,0.3,0.6,0.3,0.8-0.1&#xA;		c0.3-1.6,0.6-3.2,0.9-4.8c0.1-0.7,0.4-1.4,1.1-2c1.7-1.3,3.3-2.6,5-3.9c-0.9,4.8-1.7,9.6-2.6,14.5c-0.2,1.3-0.7,2.5-1.5,3.5&#xA;		c-1.4,1.6-3.5,2.2-5.6,0.3c-1.7-2-3.4-4.1-5.1-6.2c-2.4,1.9-4.7,3.8-7.1,5.6c-1.1,1.1-2.4,1.6-3.9,1.6c-1-0.1-1.9-0.9-1.8-1.8&#xA;		C26.2,37.5,27.1,34.2,27.4,32.6L27.4,32.6z"/>
	<path class="st1" d="M57.9,24.6c0.2-1,0.8-1.6,1.9-1.8l6.1,0l-3.5,19h-2.5l1.3-7.6l-2.5,0.6l-1.3,7h-2.5L57.9,24.6L57.9,24.6z&#xA;		 M61,25h1.8l-1.2,6.8L59,32.4l1.3-6.8C60.4,25.2,60.6,25,61,25L61,25z"/>
	<polygon class="st1" points="67.8,22.8 64.2,41.8 66.8,41.8 68.2,34.2 69.3,42 71.8,42 70.6,33.1 75.4,22.9 72.9,22.9 68.7,31.8 &#xA;		70.3,22.8 67.8,22.8"/>
	<path class="st1" d="M80.1,33.8l0.4,8.2H78l-0.4-7.4L77,34.8L75.6,42h-2.8l3.6-19.1h5.5c1.2,0,1.8,0.5,1.8,1.7l-1.1,6.1&#xA;		C82.4,32.3,81.6,33.4,80.1,33.8L80.1,33.8z M78.7,25.3l-1.3,7.1l1.8-0.5c0.3,0,0.5-0.2,0.5-0.4c0.4-1.9,0.7-3.8,1.1-5.8&#xA;		c0-0.3,0-0.4-0.3-0.4L78.7,25.3L78.7,25.3z"/>
	<path class="st1" d="M85.2,24.6c0.2-1,0.8-1.6,1.9-1.8l6.1,0l-3.5,19h-2.5l1.3-7.6L86,34.8l-1.3,7h-2.5L85.2,24.6L85.2,24.6z&#xA;		 M88.4,25h1.8L89,31.8l-2.6,0.5l1.3-6.8C87.8,25.2,88,25,88.4,25L88.4,25z"/>
	<path class="st1" d="M95.7,34.8L94.4,42h-2.8l3.6-19.1h5.5c1.2,0,1.8,0.5,1.8,1.7l-1.1,6.1C101.1,33.7,98.2,34,95.7,34.8L95.7,34.8&#xA;		z M97.5,25.3l-1.3,7.1l1.8-0.5c0.3,0,0.5-0.2,0.5-0.4c0.4-1.9,0.7-3.8,1.1-5.8c0-0.3,0-0.4-0.3-0.4L97.5,25.3L97.5,25.3z"/>
	<path class="st1" d="M102.5,42.4h4.3c0.8,0,1.6-0.7,1.8-1.5l2.9-16c0.2-0.8-0.4-1.5-1.2-1.5H106c-0.8,0-1.6,0.7-1.8,1.5l-2.9,16&#xA;		C101.1,41.7,101.6,42.4,102.5,42.4L102.5,42.4z M103.9,39.9h2.3l2.6-14.2h-2.3L103.9,39.9L103.9,39.9z"/>
	<polygon class="st1" points="113.1,23.4 112,42.5 115,42.5 120.8,23.4 118.4,23.4 114.5,37 115.8,23.4 113.1,23.4"/>
	<polygon class="st1" points="122.3,23.5 118.8,42.5 121.3,42.5 124.8,23.5 122.3,23.5"/>
	<path class="st1" d="M124.8,42.4h4.3c0.8,0,1.6-0.7,1.8-1.5l1-5.4h-2.5l-0.8,4.5h-2.3l2.6-14.2h2.3l-0.8,4.2h2.5l1-5.2&#xA;		c0.2-0.8-0.4-1.5-1.2-1.5h-4.3c-0.8,0-1.6,0.7-1.8,1.5l-2.9,16C123.4,41.7,124,42.4,124.8,42.4L124.8,42.4z"/>
	<path class="st1" d="M128.1,22.5h5.4l0.4-1.6l-4.6,0.2C128.5,21.2,128.1,21.6,128.1,22.5L128.1,22.5z"/>
</g>
</svg>