<?xml version="1.0" encoding="utf-8"?>
<svg xmlns="http://www.w3.org/2000/svg" id="Icon" style="enable-background:new 0 0 160 60;" version="1.1" viewBox="0 0 160 60" x="0px" y="0px">
<style type="text/css">
	.st0{fill:#010101;}
</style>
<title>Fox-Logo</title>
<path class="st0" d="M40.3,22.3l3.7-3.8H27.7l-6.1,22.9h4.9l2.6-9.6h5.9l3.1-3.8l-8,0l1.5-5.8L40.3,22.3z M65.1,22L61,37.4h-7.7&#xA;	L57,22L65.1,22z M64.9,41.5l6.1-23H53.8l-6.1,22.9L64.9,41.5z M120.8,30.9c0.3-0.7,0.2-1.4,0-2l0,0c-0.1-0.2-0.3-0.3-0.5-0.4l0,0&#xA;	c-0.2-0.1-0.5-0.2-0.7-0.2l0,0c-0.4,0-0.8,0-1.1,0l-0.5,0h-0.4h-0.2c-0.7,0.1-1.4,0.1-2.2,0.1h-0.1c-0.2,0-0.3,0-0.5-0.1&#xA;	c-0.2,0-0.3-0.1-0.5-0.1c-0.1,0-0.2-0.1-0.2-0.1c-0.1,0-0.2-0.1-0.3-0.2c0,0-0.1-0.1-0.4,0.1c-0.1,0.1-0.2,0.1-0.3,0.2&#xA;	c-0.3,0.2-0.6,0.6-0.5,0.9s0.4,0.5,1,0.6c0.4,0.1,0.8,0.1,1.2,0.1h0.2h0.2c0.1,0,0.2,0,0.3,0c0.2,0,0.3,0.1,0.5,0.1&#xA;	c0.9,0.3,1.1-0.1,1.3-0.4c0,0,0,0,0-0.1c0-0.1,0.1-0.1,0.2-0.1c0,0,0.1,0,0.1,0c0.2,0,0.3,0.1,0.3,0.2c0,0,0,0,0,0&#xA;	c0,0.1,0,0.1,0,0.2c0,0.1,0,0.1,0,0.2l0,0l0.1,0.1h0.1c0.3,0,0.5-0.1,0.7-0.3c0.3,0.2,0.5,0.5,0.6,0.9V31c0.1,0.7,0,1.4-0.3,2.1v0.1&#xA;	h0.1c0.3,0,0.4,0,0.5,0h0.5l0.1-0.1c0.1-0.4,0.3-0.9,0.3-1.3l0,0c0.1-0.3,0.2-0.6,0.2-0.9 M133.6,26.5c-0.5,0.4-1.1,0.6-1.7,0.7&#xA;	h-0.2l-0.4,0.1h-0.1c-0.4,0-0.8,0.1-1.2,0.1h-0.5l-1.5,0.1l-0.3,0.1h-0.2c-0.4,0.1-0.7,0.2-1,0.4c-0.2,0.1-0.4,0.2-0.5,0.4l-0.1,0.1&#xA;	c-0.6,0.7-1,1.5-1.1,2.4c0,0.2-0.1,0.3-0.1,0.4c-0.1,0.4-0.2,0.7-0.3,1.1c0,0.1,0,0.2-0.1,0.2v0.1h0.1c0.3,0,0.4,0,0.5,0l0.5,0&#xA;	l0.1-0.1c0.1-0.3,0.1-0.6,0.2-0.9c0.1-0.3,0.2-0.5,0.3-0.8c0,0,0,0,0-0.1c0.1-0.2,0.3-0.5,0.4-0.7c0.3-0.4,0.6-0.7,1-1&#xA;	c0.2,0.1,0.4,0.2,0.6,0.2c0,0,0.1,0,0.1,0c0,0,0,0,0.1,0l0.1-0.2c0-0.1,0.1-0.1,0.2-0.2c0.1-0.2,0.3-0.3,0.5-0.3&#xA;	c0.1,0,0.1,0,0.1,0.2c0,0.2,0.1,0.3,0.2,0.4c0.2,0.1,0.5,0,1-0.2l0.2-0.1l0.3-0.1l0.3-0.1l0.2,0l0.3-0.1h0.1l0.2,0&#xA;	c1.5-0.3,2.1-0.7,2.4-1c0.1-0.1,0.1-0.2,0.1-0.3c0-0.1,0-0.3-0.1-0.4c-0.1-0.1-0.2-0.3-0.3-0.3l-0.2-0.1c-0.1,0-0.2,0-0.3,0&#xA;	 M136,22.8c0,0.1-0.1,0.2-0.1,0.2c-0.1,0.2-0.2,0.4-0.3,0.6c-0.2,0.4-0.4,0.7-0.7,1.1l0,0c-0.3,0.3-0.5,0.6-0.7,0.9l0,0&#xA;	c-0.1,0.2-0.2,0.3-0.3,0.4l0,0l0,0c0,0,0,0.1,0.1,0.1l0.5,0.2c0.2,0.1,0.4,0.2,0.7,0.4c0.7,0.4,1.3,1,1.6,1.8v0.1&#xA;	c0.1,0.6,0,1.1-0.3,1.6h-0.1c-0.2,0-0.4,0-0.6,0c-0.5,0.1-0.6,0.4-0.7,0.8c0,0.1-0.1,0.3-0.2,0.4c0,0.1-0.1,0.1-0.2,0.2&#xA;	c-1.4-0.3-1.6,0.3-1.8,0.9l0,0.1c-0.1,0.3-0.3,0.5-0.5,0.7c-0.2-0.2-0.4-0.4-0.7-0.5c-0.3-0.1-0.6-0.1-0.9,0h0&#xA;	c-0.3,0.1-0.5,0.2-0.7,0.4c-0.1,0.1-0.2,0.1-0.2,0.2c-0.1,0.1-0.2,0.2-0.4,0.3l-0.2,0.1c0,0-0.1-0.1-0.1-0.1&#xA;	c-0.1-0.1-0.1-0.2-0.2-0.3c-0.1-0.2-0.2-0.3-0.3-0.4c-0.1-0.1-0.2-0.1-0.3-0.1c-0.8-0.2-1.7,0.1-2.3,0.7v0l-0.3,0.5l-0.7,0.8&#xA;	l-0.4,0.6l-0.3,0.4c-0.8,1-1.6,2.1-2.4,3l-0.3,0.4c-0.1,0.1-0.2,0.2-0.3,0.3c-0.4,0.4-0.7,0.6-0.8,0.6c-0.1,0-0.3-0.1-0.6-0.7&#xA;	c-0.2-0.4-0.3-0.8-0.5-1.2l0,0l-0.2-0.5c0,0,0,0,0,0c-0.1-0.2-0.1-0.4-0.2-0.7c-0.2-0.7-0.4-1.6-0.7-2.7v-0.1c0-0.1-0.1-0.2-0.2-0.3&#xA;	c0,0-0.1-0.1-0.1-0.1c-0.5-0.2-1-0.3-1.5-0.1l-0.3,0.1l-0.2,0.1l-0.1,0.1c-0.2,0.2-0.5,0.3-0.7,0.5l-0.3,0.2l-0.2,0.1l0,0&#xA;	c-0.1-0.1-0.2-0.2-0.3-0.3v-0.1c0,0,0,0,0,0c-0.1-0.2-0.3-0.4-0.6-0.4h-0.1c-0.1,0-0.3,0-0.4,0c-0.1,0-0.3,0-0.4,0.1&#xA;	c-0.3,0.1-0.6,0.3-0.9,0.6c-0.2-0.2-0.1-0.4-0.1-0.6c0,0,0-0.1,0-0.1c0,0,0-0.1,0-0.2c0-0.1,0-0.2-0.1-0.3l0,0&#xA;	c-0.2-0.2-0.6-0.2-1.4,0l-0.3-0.1l0,0c0-0.1,0-0.3,0-0.4c0-0.2,0-0.4-0.1-0.5c-0.1-0.1-0.5-0.1-1.1,0c0-0.2,0-0.4,0.1-0.6&#xA;	c0-0.1,0.1-0.2,0.1-0.3l0.1-0.2c0.1-0.1,0.2-0.3,0.3-0.4c0.3-0.4,0.6-0.7,0.9-1c0.2-0.1,0.3-0.3,0.5-0.4c0.4-0.4,0.9-0.7,1.4-1&#xA;	c0.5-0.3,1-0.6,1.3-0.7l0.2-0.1l0.1,0l0,0l0,0c0-0.1-0.1-0.2-0.1-0.3c-0.3-0.8-0.5-1.6-0.5-2.5c0-0.2,0.1-0.4,0.1-0.6&#xA;	c0.1-0.3,0.2-0.5,0.3-0.8c0.1-0.2,0.2-0.3,0.4-0.5c0.2-0.2,0.3-0.3,0.5-0.5c0.3,0,0.6,0,0.9,0c0.2,0,0.5,0.1,0.7,0.1l0.2,0&#xA;	c0.7,0.2,1.4,0.5,2.1,0.9l0.4,0.2l0.7,0.4c0.2,0.1,0.5,0.2,0.7,0.3l0,0h0.1l0.7-0.1l0.5-0.1c0.9-0.1,1.9-0.2,2.9-0.3&#xA;	c0.4,0,0.8-0.1,1.2-0.1h0.7c0.6,0,1.2,0,1.7,0h0.4l0,0l0,0l0.3-0.2c0.4-0.2,0.8-0.5,1.3-0.8l0.5-0.3l0.7-0.4&#xA;	c1.3-0.7,2.7-1.2,4.1-1.4h0.1C136,21.3,136.2,22,136,22.8 M137.6,21.5c-0.1-0.7-0.4-1.4-1-1.9c0,0-0.1,0-0.1,0l-0.5,0.1l-0.8,0.2&#xA;	c-1.4,0.3-2.7,0.7-4,1.3l-0.7,0.3c-0.3,0.2-0.7,0.3-1,0.5s-0.7,0.4-1.2,0.6H128h-0.7l-0.9,0.1l-0.7,0l-0.8,0.1h-0.1&#xA;	c-1.4,0.1-2.9,0.3-3.4,0.3h-0.2l-0.5-0.3l-0.3-0.2l-0.5-0.3l-0.4-0.2c-0.9-0.4-1.9-0.7-2.9-0.8l-0.7-0.1c-0.4,0-0.9-0.1-1.5-0.1&#xA;	h-0.1c-0.7,0.5-1.2,1.1-1.7,1.7l0,0c-0.3,0.4-0.5,0.8-0.6,1.2v0.1c-0.2,0.7-0.2,1.4,0,2.1c0,0,0,0.1,0,0.1c0.1,0.2,0.1,0.4,0.2,0.6&#xA;	c0,0,0,0.1,0,0.1l-0.1,0.1c-0.3,0.2-0.5,0.4-0.8,0.5l-0.3,0.2l-0.3,0.2l-0.5,0.3c-0.6,0.3-1.1,0.8-1.6,1.3c-0.1,0.1-0.2,0.3-0.3,0.4&#xA;	l-0.1,0.2c0,0.1-0.1,0.1-0.1,0.2c0,0,0,0.1,0,0.1c-0.3,0.6-0.4,1.2-0.4,1.8c0,0.2,0,0.4,0,0.6v0.2c0,0.1,0,0.3,0.1,0.4l0,0&#xA;	c0,0,0,0.1,0.1,0.1c0,0,0.1,0,0.1,0l0.2-0.1c0.2-0.1,0.5-0.3,0.7-0.3h0.1c0,0.1,0,0.1,0,0.2l0,0c-0.1,0.1,0,0.1-0.1,0.2&#xA;	c-0.1,0.3-0.1,0.5,0,0.8c0.1,0.3,0.3,0.5,0.6,0.7c0,0,0.1,0,0.1,0c0,0,0.1,0,0.1-0.1c0.1-0.1,0.2-0.2,0.2-0.3&#xA;	c0.2-0.2,0.4-0.3,0.7-0.4c0,0.3,0.1,0.7,0.2,1c0.2,0.4,0.6,0.8,1.1,0.8c0.1,0,0.1,0,0.2-0.1c0,0,0.6-1,1.2-1.1&#xA;	c0,0.2,0.1,0.3,0.2,0.5c0.1,0.1,0.2,0.3,0.3,0.4c0.2,0.2,0.5,0.4,0.8,0.5l0.3,0.2c0.1,0,0.1,0,0.2,0c0,0,0.1-0.1,0.1-0.1&#xA;	c0.1-0.3,0.3-0.6,0.6-0.8c0.1-0.1,0.2-0.2,0.4-0.4c0.1-0.1,0.3-0.2,0.5-0.3c0.2,0.3,0.3,0.6,0.4,0.9c0.1,0.2,0.2,0.5,0.3,0.7&#xA;	l0.1,0.4c0.2,0.7,0.5,1.4,0.8,2.1l0.2,0.4l0,0c0.1,0.3,0.3,0.5,0.4,0.8c0.5,0.8,1,1.3,1.6,1.3l0,0c0.7-0.2,1.3-0.6,1.8-1.1&#xA;	c0.2-0.2,0.5-0.5,0.7-0.7l0.2-0.2c0.3-0.3,0.6-0.7,1-1.1c0.3-0.4,0.8-1,1.2-1.4l0.3-0.4l0.2-0.2c0.6-0.8,1.2-1.5,1.9-2.2l0,0l0,0&#xA;	c0.1,0,0.2,0.1,0.4,0.4c0.2,0.3,0.3,0.7,0.2,0.8c0,0.1,0,0.1,0,0.2c0.1,0,0.1,0,0.2,0l0.4-0.2l0.1,0c0.3-0.2,0.6-0.3,0.8-0.5&#xA;	c0.3-0.2,0.6-0.4,0.8-0.7l0.1-0.1c0.1-0.1,0.2-0.2,0.2-0.3c0.1,0,0.1,0,0.2,0c0.2,0.1,0.3,0.2,0.4,0.4c0,0,0,0,0,0.1&#xA;	c0,0.1,0,0.1,0.1,0.2c0,0.1,0,0.1,0.1,0.2c0,0,0,0.1,0,0.1l0,0h0.1l0,0c0.2-0.1,0.4-0.2,0.6-0.3c0.1-0.1,0.3-0.2,0.4-0.2&#xA;	c0.1-0.1,0.3-0.2,0.4-0.4c0,0,0.1-0.1,0.1-0.1l0,0c0.2-0.3,0.4-0.5,0.6-0.8c0-0.1,0.1-0.2,0.1-0.2c0.1,0,0.1,0,0.2,0.1&#xA;	c0.2,0.1,0.3,0.2,0.3,0.4c0,0,0,0.1,0,0.1c0,0.1,0,0.1,0.1,0.1h0.3c0.4-0.2,0.8-0.6,1.1-1c0.1-0.2,0.2-0.4,0.2-0.7l0,0&#xA;	c0-0.1,0.1-0.3,0.1-0.3c0.1,0,0.2,0,0.3,0l0,0c0.2,0.1,0.3,0.1,0.5,0.3l0,0c0.1,0,0.1,0,0.2,0v0c0,0,0,0,0,0l0.1-0.2&#xA;	c0.1-0.2,0.3-0.5,0.4-0.7c0-0.1,0.1-0.1,0.1-0.2c0.3-0.5,0.4-1,0.5-1.6c0-0.2,0-0.5,0-0.7c0-0.2-0.1-0.3-0.2-0.5l0,0&#xA;	c-0.4-0.6-0.9-1.1-1.5-1.4l-0.4-0.2c-0.2-0.1-0.3-0.2-0.5-0.4c0.2-0.2,0.4-0.5,0.6-0.7l0.1-0.1c0.1-0.2,0.3-0.4,0.4-0.6l0.1-0.2&#xA;	l0.2-0.3c0.2-0.4,0.4-0.8,0.5-1.2C137.6,22.1,137.6,21.8,137.6,21.5 M100.1,18.5h-5.2l-5.7,6.6l-1.5-6.6h-4.7l2.5,10.9l-10.5,12h5.3&#xA;	l6.2-7.2l1.7,7.2h4.7L90.2,30L100.1,18.5z"/>
</svg>