<?xml version="1.0" encoding="utf-8"?>
<svg xmlns="http://www.w3.org/2000/svg" id="Layer_1" style="enable-background:new 0 0 160 60;" version="1.1" viewBox="0 0 160 60" x="0px" y="0px">
<style type="text/css">
	.st0{fill:#EB0029;}
</style>
<title>Asset 17</title>
<g>
	<path class="st0" d="M97.3,35l3.4-11.8c-0.2,0-4.9,1.1-4.9,1.1l-3.5,12.1c-1.4,4.2,0.4,7,5.8,5.5l5.1-1.2l1.4-5l-5.1,1.3&#xA;		C96.5,37.8,96.7,36.9,97.3,35 M110.3,14.1c0,0.2,0,0.3,0.1,0.4c0.1,0.1,0.2,0.3,0.3,0.3c0.1,0.1,0.3,0.1,0.4,0.1&#xA;		c0.2,0,0.3,0,0.4-0.1c0.1-0.1,0.2-0.2,0.3-0.3c0.1-0.1,0.1-0.3,0.1-0.4c0-0.2,0-0.3-0.1-0.4c-0.1-0.1-0.2-0.3-0.3-0.3&#xA;		c-0.1-0.1-0.3-0.1-0.4-0.1s-0.3,0-0.4,0.1c-0.1,0.1-0.2,0.2-0.3,0.3C110.4,13.8,110.3,14,110.3,14.1 M110.2,14.7&#xA;		c-0.1-0.2-0.1-0.4-0.1-0.6c0-0.2,0.1-0.4,0.1-0.6c0.1-0.2,0.2-0.3,0.4-0.4c0.2-0.1,0.4-0.1,0.5-0.1c0.2,0,0.4,0,0.5,0.1&#xA;		c0.2,0.1,0.3,0.2,0.4,0.4c0.1,0.2,0.1,0.4,0.1,0.6c0,0.2,0,0.4-0.1,0.6c-0.1,0.2-0.2,0.3-0.4,0.4c-0.2,0.1-0.4,0.1-0.6,0.1&#xA;		c-0.2,0-0.4,0-0.6-0.1C110.5,15,110.3,14.8,110.2,14.7 M122.2,28.7l-3.6-3.8l-5,1.3l3.7,3.8c2.2,2.3,1.3,2.5-0.7,3l-12,2.9&#xA;		c0.1,0.2,3.4,3.6,3.4,3.6l12.3-3C124.7,35.5,126.2,32.6,122.2,28.7 M110.9,14L110.9,14c0.2,0,0.3,0,0.4,0c0,0,0.1,0,0.1-0.1&#xA;		c0,0,0-0.1,0-0.1c0,0,0-0.1,0-0.1c0,0,0,0-0.1-0.1c0,0-0.1,0-0.3,0h-0.1V14z M110.9,14.7h-0.2v-1.2h0.2c0.2,0,0.3,0,0.4,0&#xA;		c0.1,0,0.1,0,0.2,0c0,0,0.1,0.1,0.1,0.1c0,0.1,0,0.1,0,0.2c0,0.1,0,0.2-0.1,0.2c-0.1,0.1-0.1,0.1-0.2,0.1c0,0,0.1,0,0.1,0&#xA;		c0,0,0,0,0.1,0.1c0,0,0,0.1,0.1,0.1l0.1,0.2h-0.3l-0.1-0.2c-0.1-0.1-0.1-0.2-0.2-0.2c0,0-0.1,0-0.2,0h-0.1V14.7z M71,30.8l0-2.8&#xA;		c0,0,0-0.3-0.3-0.2l-0.2,0c0,0-0.3,0.1-0.3,0.3l-0.9,3.1c0,0-0.1,0.3,0.2,0.2l1.1-0.3C70.7,31.2,71,31.1,71,30.8 M77.4,33.9&#xA;		l-1.2,0.3c0,0-0.3,0.1-0.3,0.4l0,6.2c0,0,0,0.3-0.3,0.4l-4.2,1c0,0-0.3,0.1-0.3-0.2l0-6.2c0,0,0-0.3-0.3-0.2l-2.5,0.6&#xA;		c0,0-0.3,0.1-0.4,0.4l-2,6.8c0,0-0.1,0.3-0.4,0.4l-4.2,1.1c0,0-0.3,0.1-0.2-0.2l2.1-7.1l-10.7,2.7c0,0-0.3,0.1-0.4,0.4&#xA;		c-0.3,1.1-0.6,2.1-0.6,2.1l9-2.2c0,0,0.1,0,0,0c-0.2,0.5-1.4,4.8-1.4,4.8c0,0-8.3,2.1-8.9,2.3c0,0,0,0-0.1,0&#xA;		c-0.2-0.2-1.3-1.4-2.1-2.2c0,0-0.2-0.2-0.3,0.1c-0.3,1-0.8,2.9-0.8,2.9c0,0,0,0-0.1,0.1c0,0-5,1.2-5,1.2c-5.4,1.5-7.1-1.3-5.8-5.5&#xA;		l3.4-11.8c0,0,0.1-0.3,0.4-0.4l4.2-1c0.3-0.1,0.2,0.1,0.2,0.2c0,0-3.3,11.3-3.4,11.6c-0.6,1.8-0.8,2.7,2.2,2l3.4-0.9l0.6-2.2&#xA;		c0,0,0.1-0.3-0.2-0.2l-2.6,0.6c0,0-0.3,0.1-0.2-0.2l1.3-4.4c0,0,0,0,0,0c0.1,0,0.6-0.2,2.9-0.7c0,0,0.3-0.1,0.4-0.4&#xA;		c1-3.4,2-7.1,2-7.1l13.6-3.4c0,0,0.3-0.1,0.2,0.2c0,0-1.3,4.3-1.3,4.4c0,0,0,0,0,0.1c0,0-9,2.3-9,2.3c0,0-0.3,1.2-0.7,2.4&#xA;		c0,0-0.1,0.3,0.2,0.2L64,32.8c0,0,0.3-0.1,0.4-0.4l2-6.8c0,0,0.1-0.3,0.4-0.4l8.8-2.2c0,0,0.3-0.1,0.3,0.2l0,6.3c0,0,0,0.3,0.3,0.2&#xA;		l2.5-0.6c0,0,0.3-0.1,0.2,0.2l-1.2,4.1C77.8,33.5,77.7,33.8,77.4,33.9 M94.2,23.1l-4.1,14.2c0,0-0.1,0.3-0.4,0.4l-4.2,1.1&#xA;		c0,0-0.3,0.1-0.2-0.2l4.1-14.2c0,0,0.1-0.3-0.2-0.2L87,24.6c0,0-0.3,0.1-0.4,0.4l-4.1,14.2c0,0-0.1,0.3-0.4,0.4l-4.2,1.1&#xA;		c0,0-0.3,0.1-0.2-0.2l4.1-14.2c0,0,0.1-0.3-0.2-0.2l-4,1c0,0-0.3,0.1-0.2-0.2l1.2-4.2c0,0,0.1-0.3,0.4-0.4l18.9-4.7l0.9-3.1&#xA;		c1.4-5.4,4.7-5.5,7.6-2.3l8.7,9.1c0,0-1.4,4.6-1.5,4.8l-8.5-8.9c-1.3-1.5-2-2.2-2.9,0.9l-1.5,5.1l-1.5-1.6l-4.6,1.1&#xA;		C94.6,22.7,94.3,22.8,94.2,23.1"/>
</g>
</svg>