<?xml version="1.0" encoding="utf-8"?>
<svg xmlns="http://www.w3.org/2000/svg" id="Layer_1" style="enable-background:new 0 0 160 60.2;" version="1.1" viewBox="0 0 160 60.2" x="0px" y="0px">
<style type="text/css">
	.st0{fill:#221F1F;}
</style>
<title>Asset 22</title>
<g>
	<g>
		<path class="st0" d="M55.7,30c0,0.1,0.2,0.3,0.2,0.6c0,0.3-0.2,0.5-0.5,0.5l0,0h-4.9h0c-0.6,0-1.1,0.5-1.1,1v1.7&#xA;			c0,0.6,0.5,1,1.1,1h0l7.1,0c1.9,0,4.2-1.8,4.2-4.1c0-1.1-0.5-2.2-1.2-3l-6.3-6.9c-0.1-0.1-0.2-0.2-0.2-0.4c0-0.3,0.2-0.6,0.5-0.6&#xA;			l4.8,0c0.5,0,0.9-0.4,0.9-0.9v-2.1c0-0.5-0.4-0.9-0.7-0.9l-7.4,0c-1.9,0-3.6,2-3.6,4.4c0,1.3,0.5,2.4,1.3,3.2L55.7,30L55.7,30z"/>
		<path class="st0" d="M67.9,33.7c0,0.6-0.5,1.1-1.1,1.1h-2.8c-0.6,0-1.1-0.5-1.1-1.1V17c0-0.6,0.5-1.1,1.1-1.1h2.8&#xA;			c0.6,0,1.1,0.5,1.1,1.1l0,5.8h3.9V17c0-0.6,0.5-1.1,1.1-1.1h2.8c0.6,0,1.1,0.5,1.1,1.1v16.7c0,0.6-0.5,1.1-1.1,1.1h-2.8&#xA;			c-0.6,0-1.1-0.5-1.1-1.1l0-7.2h-3.9L67.9,33.7z"/>
		<path class="st0" d="M105.1,34.8c0.5,0,1-0.4,1-1v-2c0-0.5-0.4-1-1-1l-5.7,0V27l3.8,0c0.5,0,1-0.4,1-1v-1.8c0-0.5-0.4-1-1-1&#xA;			l-3.8,0v-3.4l5.6,0c0.5,0,1-0.4,1-1v-2c0-0.5-0.4-1-1-1l-9.3,0c-0.9,0-1.4,0.5-1.4,1.4v16.1c0,0.8,0.5,1.4,1.4,1.4L105.1,34.8z"/>
		<path class="st0" d="M106.9,17.3c0-0.8,0.5-1.3,1.3-1.3h2.5c0.8,0,1.3,0.5,1.3,1.3v16.2c0,0.8-0.5,1.3-1.3,1.3h-2.5&#xA;			c-0.8,0-1.3-0.5-1.3-1.3V17.3z"/>
		<path class="st0" d="M87.4,25.4c0-2.7-0.3-4.4-0.3-4.4c-0.2-0.7-0.8-1.3-1.6-1.3c-0.8,0-1.4,0.5-1.6,1.3c0,0-0.3,1.7-0.3,4.4&#xA;			c0,2.8,0.3,4.4,0.3,4.4c0.2,0.7,0.8,1.3,1.6,1.3c0.8,0,1.4-0.6,1.6-1.3C87.1,29.8,87.4,28.2,87.4,25.4 M83,34.8&#xA;			c-3.5,0-4.5-2.3-4.5-8.7v-1.6c0-6.4,0.9-8.7,4.5-8.7h5c3.5,0,4.5,2.3,4.5,8.7v1.6c0,6.4-0.9,8.7-4.5,8.7H83z"/>
		<path class="st0" d="M123.5,25.2c0-0.9-0.4-1.7-0.9-2.2v0l-10.6-10.6v0c-0.6-0.6-1.3-0.8-2.2-0.8H50.3c-0.8,0-1.6,0.3-2.2,0.9v0&#xA;			L37.5,23v0c-0.6,0.6-0.9,1.4-0.9,2.2c0,0.9,0.4,1.7,0.9,2.2v0l10.7,10.7c0,0,0,0,0,0l0,0v0c0.6,0.6,1.3,0.8,2.2,0.8h59.2&#xA;			c0.9,0,1.6-0.4,2.2-0.9c0,0,0,0,0,0l10.7-10.7v0C123.1,26.9,123.5,26.1,123.5,25.2 M109.7,9.5c1.3,0,2.6,0.5,3.6,1.4&#xA;			c0,0,10.6,10.6,10.6,10.6c1,1,1.5,2.3,1.5,3.6c0,1.4-0.5,2.7-1.5,3.6c0,0-10.7,10.7-10.7,10.7c-1,1-2.2,1.5-3.6,1.5H50.4&#xA;			c-1.3,0-2.6-0.5-3.6-1.4l0,0c0,0-10.7-10.7-10.7-10.7c-1-1-1.5-2.3-1.5-3.6c0-1.4,0.5-2.7,1.5-3.7c0,0,10.6-10.6,10.7-10.6&#xA;			c1-0.9,2.2-1.5,3.6-1.5H109.7z"/>
	</g>
	<polygon class="st0" points="52.5,50.3 47.6,50.3 47.6,45.5 52.1,45.5 52.1,46.3 48.9,46.3 48.9,47.5 52.1,47.5 52.1,48.4 &#xA;		48.9,48.4 48.9,49.4 52.5,49.4"/>
	<polygon class="st0" points="93.4,50.3 88.4,50.3 88.4,45.5 93,45.5 93,46.3 89.8,46.3 89.8,47.5 93,47.5 93,48.4 89.8,48.4 &#xA;		89.8,49.4 93.4,49.4"/>
	<polygon class="st0" points="113.3,50.3 108.3,50.3 108.3,45.5 112.9,45.5 112.9,46.3 109.6,46.3 109.6,47.5 112.8,47.5 &#xA;		112.8,48.4 109.6,48.4 109.6,49.4 113.3,49.4"/>
	<g>
		<path class="st0" d="M60.7,50.3h-1.3v-1.9c0-0.3,0-0.8,0.1-1.5c-0.2,0.5-2.2,3.5-2.2,3.5h-0.6c0,0-1.9-2.8-2.1-3.5&#xA;			c0,0.6,0,1.1,0,1.5v1.9h-1v-4.9h1.5l2,3.2l2.1-3.2h1.4V50.3z"/>
		<path class="st0" d="M78,50.3h-1.3v-1.9c0-0.3,0-0.8,0.1-1.5c-0.2,0.5-2.2,3.5-2.2,3.5H74c0,0-1.9-2.8-2.1-3.5c0,0.6,0,1.1,0,1.5&#xA;			v1.9h-1v-4.9h1.5l2,3.2l2.1-3.2H78V50.3z"/>
		<path class="st0" d="M107.1,50.3h-1.3v-1.9c0-0.3,0-0.8,0.1-1.5c-0.2,0.5-2.2,3.5-2.2,3.5h-0.6c0,0-1.9-2.8-2.1-3.5&#xA;			c0,0.6,0,1.1,0,1.5v1.9h-1v-4.9h1.5l2,3.2l2.1-3.2h1.4V50.3z"/>
	</g>
	<rect class="st0" height="4.8" width="1.3" x="61.8" y="45.5"/>
	<g>
		<path class="st0" d="M69.8,47.4c0,0.5,0,0.9-0.1,1.2c-0.1,0.2-0.2,0.5-0.3,0.7c-0.5,0.7-1.3,1.1-2.3,1.1c-1.1,0-2.1-0.4-2.5-1.1&#xA;			c-0.2-0.3-0.3-0.6-0.3-1c0-0.2,0-0.5,0-1v-2h1.3v1.9c0,0.4,0,0.7,0,0.9c0,0.3,0.1,0.6,0.3,0.8c0.2,0.4,0.8,0.6,1.3,0.6&#xA;			c0.6,0,1.1-0.3,1.3-0.9c0.1-0.3,0.1-0.7,0.1-1.4v-1.8h1.2V47.4z"/>
	</g>
	<polygon class="st0" points="87.3,50.3 86,50.3 86,48.4 83.1,48.4 83.1,50.3 81.8,50.3 81.8,45.5 83.1,45.5 83.1,47.5 86,47.5 &#xA;		86,45.5 87.3,45.5"/>
	<polygon class="st0" points="99.1,50.3 94.5,50.3 94.5,45.5 95.8,45.5 95.8,49.4 99.1,49.4"/>
	<polygon class="st0" points="119.1,46.3 117.1,46.3 117.1,50.3 115.8,50.3 115.8,46.3 113.8,46.3 113.8,45.5 119.1,45.5"/>
	<g>
		<path class="st0" d="M39.2,46.9c0,0.3-0.2,0.6-0.6,0.6c-1.1,0-2.3,0-2.3,0v-1.2l2.3,0c0,0,0,0,0,0C38.9,46.3,39.2,46.6,39.2,46.9&#xA;			C39.2,46.9,39.2,46.9,39.2,46.9C39.2,46.9,39.2,46.9,39.2,46.9 M40,46.2c-0.3-0.4-0.8-0.7-1.3-0.7c0,0-0.6,0-0.8,0h-2.9v4.9h1.3&#xA;			v-1.4h0v-0.5c0,0,2,0.1,2.7,0c0.7-0.1,1.3-0.7,1.3-1.5C40.2,46.7,40.1,46.4,40,46.2"/>
		<path class="st0" d="M42.3,47.5v-1.2l2.3,0c0,0,0,0,0,0c0.3,0,0.6,0.3,0.6,0.6c0,0,0,0,0,0s0,0,0,0c0,0.3-0.2,0.6-0.6,0.6&#xA;			C43.5,47.6,42.3,47.5,42.3,47.5 M46.5,50.3l-1.8-1.9c0.1,0,0.2,0,0.3,0c0.7-0.1,1.3-0.7,1.3-1.5c0-0.3-0.1-0.5-0.2-0.8&#xA;			c-0.3-0.4-0.8-0.7-1.3-0.7c0,0-0.6,0-0.8,0H41v4.9h1.3v-1.4h0v-0.5c0,0,0.4,0,1,0l1.6,1.9H46.5z"/>
		<path class="st0" d="M120.9,48.9c0,0.2,0.1,0.4,0.3,0.5c0.2,0.2,0.6,0.3,1.2,0.3c0.3,0,0.6,0,0.8-0.1c0.4-0.1,0.6-0.3,0.6-0.6&#xA;			c0-0.2-0.1-0.3-0.3-0.4c-0.2-0.1-0.5-0.2-0.9-0.2l-0.7-0.1c-0.7-0.1-1.2-0.2-1.5-0.4c-0.5-0.2-0.7-0.6-0.7-1.1&#xA;			c0-0.4,0.2-0.8,0.7-1.1c0.4-0.3,1.1-0.4,2-0.4c0.7,0,1.3,0.1,1.8,0.4c0.5,0.3,0.8,0.7,0.8,1.2h-1.4c0-0.3-0.2-0.5-0.5-0.6&#xA;			c-0.2-0.1-0.5-0.1-0.8-0.1c-0.4,0-0.7,0.1-0.9,0.2c-0.2,0.1-0.3,0.3-0.3,0.4c0,0.2,0.1,0.3,0.3,0.4c0.1,0.1,0.4,0.1,0.9,0.2&#xA;			l1.2,0.2c0.5,0.1,0.9,0.2,1.2,0.4c0.4,0.2,0.6,0.6,0.6,1c0,0.4-0.2,0.8-0.7,1.1c-0.5,0.3-1.1,0.4-2,0.4c-0.9,0-1.6-0.1-2.1-0.4&#xA;			c-0.5-0.3-0.8-0.7-0.8-1.2H120.9z"/>
	</g>
</g>
</svg>