<?xml version="1.0" encoding="utf-8"?>
<svg xmlns="http://www.w3.org/2000/svg" viewBox="0 0 160 60">
  <defs>
    <style>.cls-1{fill:none;}.cls-2{fill:#ec212a;}.cls-3{fill:#231f20;}</style>
  </defs>
  <title>Asset 5</title>
  <g data-name="Layer 2" id="Layer_2">
    <g id="SVGs">
      <rect class="cls-1" height="60" width="160"/>
      <path class="cls-2" d="M39.59,22.74l5.2-2.08L34,39.44,23.1,20.66l5.21,2.08a1.29,1.29,0,0,0,.5.1,1.25,1.25,0,0,0,.64-.17,9,9,0,0,1,9,0,1.29,1.29,0,0,0,1.1.05Zm-6.4,8.74V27.13l-3.26-1.3Zm1.51,0L38,25.83l-3.26,1.3Z"/>
      <path class="cls-3" d="M73.36,26h-11a1.67,1.67,0,0,0-1.29.82L56,35.73h1.71l1.75-3.07h7.17L64.9,35.73h4.36L74,27.5c.47-.82.19-1.47-.63-1.47m-3.84,1.53-.09.16,0,0-2,3.61H60.23l2.07-3.61a.89.89,0,0,1,.67-.43h6.44a.15.15,0,0,1,.12.24"/>
      <path class="cls-3" d="M88,35.73l4.52-8,.1-.2a.16.16,0,0,0,0-.08.15.15,0,0,0-.15-.15H86.33a.88.88,0,0,0-.66.43l-4.51,8H76.83l3.83-6.68,1.27-2.2A1.68,1.68,0,0,1,83.23,26h10.7c.81,0,1.09.65.63,1.47l-4.74,8.23Z"/>
      <path class="cls-3" d="M58.58,26H46.81l-5.58,9.7H53.65a1.71,1.71,0,0,0,1.3-.82l1.27-2.21,3-5.2c.46-.82.18-1.47-.63-1.47m-1.14,1.53-.1.16,0,0L56.07,30l-2.3,4a.85.85,0,0,1-.66.42H46.54l3.78-6.69.23-.41h6.76a.16.16,0,0,1,.15.15.25.25,0,0,1,0,.09"/>
      <path class="cls-3" d="M103.78,35.73H93.19a1,1,0,0,1-.81-1.54c.41-.75,3.93-6.79,4.23-7.31A1.65,1.65,0,0,1,98,26h11.4l-.74,1.27h-7.39a1.22,1.22,0,0,0-1.19.69l-1.15,2h7.74l-.77,1.31H98.22L96.8,33.61c-.27.43,0,.81.48.81h7.25Z"/>
      <polygon class="cls-3" points="80.77 26.02 75.11 35.73 70.86 35.73 76.58 26.02 80.77 26.02"/>
      <path class="cls-3" d="M115.23,34.43l-4.73-4.17a2.22,2.22,0,0,1-.58-1.66A2.56,2.56,0,0,1,112.28,26H123l-.75,1.26h-9l4.91,4.52a2.1,2.1,0,0,1,.48,1.27A2.66,2.66,0,0,1,116,35.73H105l.75-1.3Z"/>
      <path class="cls-3" d="M131.27,35.73H120.68a1,1,0,0,1-.81-1.54c.41-.75,3.93-6.79,4.23-7.31A1.65,1.65,0,0,1,125.5,26h11.4l-.74,1.27h-7.39a1.22,1.22,0,0,0-1.19.69l-1.16,2h7.74l-.77,1.31h-7.68l-1.42,2.38c-.27.43,0,.81.48.81H132Z"/>
      <path class="cls-3" d="M135.9,34.49a1,1,0,0,1-.26,0h-.1v-.34h.1l.26,0a.13.13,0,0,1,.08.06.13.13,0,0,1,0,.09.12.12,0,0,1,0,.09.11.11,0,0,1-.08.06m.21.32-.07-.09-.09-.05a.41.41,0,0,0,.24-.11.35.35,0,0,0,.08-.23.33.33,0,0,0,0-.17.24.24,0,0,0-.12-.11.36.36,0,0,0-.18-.05h-.63V35.2h.24v-.5h.06a.29.29,0,0,1,.18.05.82.82,0,0,1,.17.25l.1.2h.31L136.2,35c-.05-.09-.07-.14-.09-.14"/>
      <path class="cls-3" d="M136.55,35a1,1,0,0,1-.34.34.91.91,0,0,1-.46.12,1,1,0,0,1-.46-.12,1,1,0,0,1-.34-.34,1,1,0,0,1-.11-.46.94.94,0,0,1,.13-.47.79.79,0,0,1,.34-.33.88.88,0,0,1,.45-.12.92.92,0,0,1,.45.12.85.85,0,0,1,.34.33,1,1,0,0,1,.12.47.92.92,0,0,1-.12.46m.19-1a1.06,1.06,0,0,0-.42-.41,1.11,1.11,0,0,0-1.13,0,1.06,1.06,0,0,0-.42.41,1.19,1.19,0,0,0-.15.58,1.14,1.14,0,0,0,.57,1,1.2,1.2,0,0,0,.57.15,1.22,1.22,0,0,0,.57-.15,1.16,1.16,0,0,0,.57-1,1.2,1.2,0,0,0-.16-.58"/>
    </g>
  </g>
</svg>