<?xml version="1.0" encoding="utf-8"?>
<svg xmlns="http://www.w3.org/2000/svg" viewBox="0 0 160 60">
  <defs>
    <style>.cls-1{fill:#231f20;}.cls-2{fill:none;}</style>
  </defs>
  <title>Asset 10</title>
  <g data-name="Layer 2" id="Layer_2">
    <g id="SVGs">
      <path class="cls-1" d="M59.73,28.1l-.56,1.06c-.17.35-.41.49-1.06.49h-3.2l1.06-2h3.2C59.75,27.61,59.92,27.69,59.73,28.1Zm5.48,0c.75-1.45-.19-1.91-2.56-1.91H51.16L46.68,34.8h5.54l1.95-3.73h1.68l.68,3.73h6l-1.08-3.73c1.8,0,2.49-.55,2.88-1.3Z"/>
      <path class="cls-1" d="M80.2,27.62H73.65l-1,2H79l-.74,1.42H71.86l-1.2,2.31h6.59L76.5,34.8H64.4l4.48-8.61H80.94Z"/>
      <path class="cls-1" d="M101.11,26.15,90.43,34.82H83.16l-.7-8.67h7.21l.52,5.93,7.39-5.93Z"/>
      <path class="cls-1" d="M103.11,29.65h-2.52l1.8-3.47h2.55Z"/>
      <path class="cls-1" d="M107.79,34.8h-5.53l4.47-8.61h5.53Z"/>
      <path class="cls-1" d="M127.16,27.62H123l-3.74,7.18h-5.47l3.72-7.19h-4.17l.75-1.42h13.79Z"/>
      <path class="cls-1" d="M133.14,29.65l-1.53,1.93h-4.29l.49-1.93,1.81-3.46H135Zm-2.66,5.15h-5.33l1.18-2.26h5.32Z"/>
      <path class="cls-1" d="M43.36,23.08a23,23,0,0,0-11.54-1.67,7.1,7.1,0,0,0-1,3.59,17.38,17.38,0,0,1-.61-3.41A23.48,23.48,0,0,0,25.3,23a23,23,0,0,0,4.33,10.83,7.2,7.2,0,0,0,3.71-1,17.32,17.32,0,0,1-2.72,2.31,23.49,23.49,0,0,0,3.71,3.55,23,23,0,0,0,7.21-9.16,7.14,7.14,0,0,0-2.65-2.67,17.42,17.42,0,0,1,3.26,1.18A23.49,23.49,0,0,0,43.36,23.08Zm-9,8.64a18.4,18.4,0,0,1-3-5.16,18.46,18.46,0,0,1,6,0A18.42,18.42,0,0,1,34.35,31.72Z"/>
      <rect class="cls-2" height="60" width="160"/>
    </g>
  </g>
</svg>