<?xml version="1.0" encoding="utf-8"?>
<svg xmlns="http://www.w3.org/2000/svg" viewBox="0 0 160 60">
  <defs>
    <style>.cls-1{fill:none;}.cls-2{fill:#a6a8ab;}.cls-3{fill:#020303;}.cls-4{fill:#fd0;}.cls-5{fill:#a8aaad;}</style>
  </defs>
  <title>Asset 7</title>
  <g data-name="Layer 2" id="Layer_2">
    <g id="SVGs">
      <rect class="cls-1" height="60" width="160"/>
      <path class="cls-2" d="M122.35,40h.14c.15,0,.29-.06.29-.2s-.08-.21-.29-.21h-.14Zm0,.65h-.19V39.52a2.14,2.14,0,0,1,.33,0,.63.63,0,0,1,.37.09.29.29,0,0,1,.11.24.29.29,0,0,1-.23.29h0c.1,0,.17.11.2.29a.92.92,0,0,0,.08.29h-.2a.93.93,0,0,1-.08-.3.22.22,0,0,0-.25-.21h-.13Zm.2-1.51a.89.89,0,1,0,.85.9.87.87,0,0,0-.85-.9Zm0-.16a1.06,1.06,0,1,1-1,1.06,1,1,0,0,1,1-1.06Z"/>
      <path class="cls-3" d="M45.17,18.92c-2.63,0-5.67,2.12-7.05,4.93l.12-.16c-.24.41-1.1,2.15-5.59,11.26A6.43,6.43,0,0,0,32,37.12a4,4,0,0,0,.38,2.29,3.31,3.31,0,0,0,3.12,1.75h80.6c2.64,0,5.67-2.12,7.05-4.94l5.47-11.1a6.44,6.44,0,0,0,.65-2.16,4.08,4.08,0,0,0-.38-2.29,3.32,3.32,0,0,0-3.12-1.75Z"/>
      <path class="cls-4" d="M123.8,35.9,34.33,38.14a2.6,2.6,0,0,1,.24-2.24L40,24.8c.93-1.89,3.16-3.48,4.87-3.48h80.59a1.45,1.45,0,0,1,1.4.7,2.59,2.59,0,0,1-.24,2.24l-5.47,11.1c-.93,1.89-3.16,3.49-4.87,3.49H35.73a1.45,1.45,0,0,1-1.4-.7M45.06,19.91c-2.26,0-5,1.91-6.18,4.35l-5.47,11.1a4,4,0,0,0-.26,3.57,2.57,2.57,0,0,0,2.43,1.33h80.6c2.26,0,5-1.91,6.18-4.35l5.47-11.1a5.36,5.36,0,0,0,.55-1.8,3.1,3.1,0,0,0-.29-1.77,2.57,2.57,0,0,0-2.43-1.33Z"/>
      <path class="cls-4" d="M67.07,23.79h-7l-.35.48,1.83.46s-8.2,2.78-11,3.47l1.89-3.33,2.38-.53.27-.54H45.25l-.51.64,2.36.45-6,10.51-2.23.32-.32.56H49.28l.2-.51-3-.33,3.35-5.9a6.68,6.68,0,0,0,.68-.15A12.59,12.59,0,0,0,61,36.26a18.85,18.85,0,0,1-5-8.47l10.66-3.32.39-.68"/>
      <polygon class="cls-5" points="91.17 25.1 78.77 26.2 80.2 23.81 91.98 23.8 91.17 25.1"/>
      <path class="cls-4" d="M61.79,36.26l.32-.56,2.51-.32,6-10.51-2.11-.4.49-.67h7.21L69.61,35.33l3,.33s-.23.6-.25.6H61.79"/>
      <path class="cls-4" d="M73.42,36.26l.32-.56,2.4-.42L79.66,29l-2-.68.25-.4,7.85-.66-4.52,8,2.72.38s-.25.58-.27.58H73.42"/>
      <path class="cls-4" d="M119.14,27.65s-.4-.26-.71-.43a4.82,4.82,0,0,0-.93-.36,12.16,12.16,0,0,0-3.45-.39,19.59,19.59,0,0,0-5.91,1.06l-.48-.3a5.31,5.31,0,0,0-.93-.36,12.17,12.17,0,0,0-3.45-.39,20.15,20.15,0,0,0-6.32,1.19l.71-1.16-8.22,1.17-.25.42,2,.67-3.66,6.52-2.43.41-.32.56H95s.2-.51.2-.51l-2.69-.37,3.85-6.82c2.11.12,4.68,0,6,.44l-3.59,6.34-2.38.37-.32.56h9.78l.21-.6-2.5-.23,3.83-6.83c2.08.17,4.59.07,5.8.45l-3.59,6.34-2.23.33-.35.55h10.27l.23-.5-2.84-.37Z"/>
    </g>
  </g>
</svg>