<?xml version="1.0" encoding="utf-8"?>
<svg xmlns="http://www.w3.org/2000/svg" id="Layer_1" style="enable-background:new 0 0 160 60;" version="1.1" viewBox="0 0 160 60" x="0px" y="0px">
<style type="text/css">
	.st0{fill:#EC1C24;}
	.st1{fill-rule:evenodd;clip-rule:evenodd;fill:#FFFFFF;}
</style>
<title>Asset 6</title>
<g>
	<polygon class="st0" points="55,5 105,5 105,55 55,55 55,5"/>
	<path class="st1" d="M96.5,40.1c0.5,0,0.8-0.4,0.8-0.8c0-0.5-0.4-0.8-0.8-0.8c-0.5,0-0.8,0.4-0.8,0.8C95.6,39.8,96,40.1,96.5,40.1&#xA;		L96.5,40.1z M69.1,39.7l-2.6,2.8c-0.8,1-1.5,1.5-1.5,2.7c0,1.7,1.4,2.8,3.6,2.8h7.3v-5h-3.7v1.4h-1.7c-0.8,0.1-0.9-0.3-0.5-0.7&#xA;		l1.3-1.4c0.3-0.4,0.7-0.5,1-0.5h3.5v-3.4h-3.8C71,38.5,70.1,38.7,69.1,39.7L69.1,39.7z M91.3,38.5v3.4H95v-3.4H91.3L91.3,38.5z&#xA;		 M91.3,42.4v5.7H95v-5.7H91.3L91.3,42.4z M76.6,38.5v3.4h3.7v-3.4H76.6L76.6,38.5z M76.6,42.4v5.7h3.7v-5.7H76.6L76.6,42.4z&#xA;		 M80.9,38.5v3.4h3.7v-3.4H80.9L80.9,38.5z M87,38.5v3.4h3.7v-3.4H87L87,38.5z M84.6,42.6v-0.2h-3.7v0.8c0,0.5,0.2,1.2,0.5,1.6&#xA;		l1.5,2.4c0.6,0.8,1,1.6,2.9,1.6c2,0,2.2-0.9,2.8-1.6l1.5-2.4c0.2-0.4,0.5-1.1,0.5-1.6v-0.8H87v0.2c0,0.2,0,0.4-0.2,0.6l-0.7,1.1&#xA;		c-0.1,0.2-0.3,0.3-0.5,0l-0.8-1.2C84.6,43,84.6,42.9,84.6,42.6L84.6,42.6z M96.5,39.9c-0.4,0-0.6-0.3-0.6-0.6&#xA;		c0-0.4,0.3-0.6,0.6-0.6c0.4,0,0.6,0.3,0.6,0.6C97.1,39.7,96.8,39.9,96.5,39.9L96.5,39.9z M96.6,39.4c0.2,0,0.2-0.1,0.2-0.2&#xA;		c0-0.2-0.1-0.3-0.3-0.3h-0.4v0.9h0.2v-0.4h0.1l0.2,0.4h0.2L96.6,39.4L96.6,39.4z M96.3,39.2V39h0.2c0.1,0,0.2,0,0.2,0.1&#xA;		c0,0.1-0.1,0.1-0.2,0.1H96.3L96.3,39.2z"/>
</g>
</svg>